<?xml version="1.0" standalone="no"?>
<!DOCTYPE svg PUBLIC "-//W3C//DTD SVG 20010904//EN"
 "http://www.w3.org/TR/2001/REC-SVG-20010904/DTD/svg10.dtd">
<svg version="1.0" xmlns="http://www.w3.org/2000/svg"
 width="421.000000pt" height="421.000000pt" viewBox="0 0 421.000000 421.000000"
 preserveAspectRatio="xMidYMid meet">
<metadata>
Created by potrace 1.11, written by Peter Selinger 2001-2013
</metadata>
<g transform="translate(0.000000,421.000000) scale(0.100000,-0.100000)"
fill="#000000" stroke="none">
<path d="M0 2105 l0 -2105 2105 0 2105 0 0 2105 0 2105 -2105 0 -2105 0 0
-2105z m2279 1675 c155 -15 286 -44 407 -91 217 -85 328 -182 370 -325 28 -99
17 -150 -73 -342 l-80 -167 -824 0 -824 0 -30 60 c-125 250 -130 263 -130 365
0 85 3 101 29 149 131 251 626 401 1155 351z m551 -1104 c0 -2 -18 -52 -41
-111 -116 -310 -198 -680 -215 -965 -9 -160 -45 -233 -138 -283 -39 -21 -54
-22 -338 -25 -197 -2 -311 1 -338 8 -53 14 -127 82 -150 136 -12 27 -22 93
-30 190 -21 277 -80 550 -181 844 -33 96 -63 183 -66 193 -5 16 35 17 746 17
413 0 751 -2 751 -4z m-396 -1488 c27 -39 13 -149 -21 -162 -16 -6 -534 -54
-629 -58 -35 -2 -49 2 -60 17 -18 24 -19 150 -1 185 12 23 19 25 107 31 52 3
206 6 342 7 245 2 247 2 262 -20z m-15 -282 c7 -9 11 -41 9 -83 -3 -61 -5 -69
-28 -80 -20 -9 -560 -63 -637 -63 -36 0 -53 26 -53 85 0 37 6 60 19 76 18 22
33 25 302 50 343 32 373 33 388 15z m-159 -278 c-1 -35 -34 -102 -66 -132 -62
-59 -132 -70 -204 -33 -49 24 -90 83 -90 129 0 26 2 26 73 33 39 3 110 9 157
14 135 13 130 14 130 -11z"/>
</g>
</svg>
