<?xml version="1.0" encoding="UTF-8"?>
<svg width="74px" height="125px" viewBox="0 0 74 125" version="1.1" xmlns="http://www.w3.org/2000/svg" xmlns:xlink="http://www.w3.org/1999/xlink">
    <!-- Generator: Sketch 46.2 (44496) - http://www.bohemiancoding.com/sketch -->
    <title>Shape</title>
    <desc>Created with Sketch.</desc>
    <defs></defs>
    <g id="Page-1" stroke="none" stroke-width="1" fill="none" fill-rule="evenodd">
        <g id="Square" transform="translate(-165.000000, -780.000000)" fill-rule="nonzero" fill="#FFFFFF">
            <g id="noun_414843_cc" transform="translate(165.000000, 776.000000)">
                <g id="Group" transform="translate(37.000000, 66.500000) scale(-1, 1) rotate(-180.000000) translate(-37.000000, -66.500000) translate(0.000000, 4.000000)">
                    <g transform="translate(-0.000000, 0.000000)" id="Shape">
                        <g transform="translate(0.000000, 0.000000)">
                            <path d="M30.2055862,6.58103771 L43.7140405,7.69049135 C43.7140405,3.76473231 40.6875425,0.328438106 36.9585544,0.0222088198 C33.23712,-0.286530542 30.2055862,2.66029882 30.2055862,6.58103771 Z M23.3342774,10.7025827 L23.3342774,13.7096539 C23.3342774,14.7889866 24.2054657,15.7453256 25.2856384,15.8331783 L48.1404828,17.8161384 C49.2156198,17.9115213 50.0943617,17.1082969 50.0943617,16.0264541 L50.0943617,13.021893 C50.0943617,11.9450704 49.2156198,10.9862213 48.1404828,10.8983686 L25.2856384,8.91791857 C24.2054657,8.82253568 23.3342774,9.62324996 23.3342774,10.7025827 Z M23.3267237,21.3528356 L23.3267237,26.2399538 C23.3267237,27.3217966 24.2054657,28.2756256 25.2831206,28.3659883 L48.639024,28.5065526 C49.7191968,28.5969153 50.5903851,27.796201 50.5903851,26.7193784 L50.5903851,23.707287 C50.5903851,22.6304644 49.7191968,21.6791455 48.639024,21.5862727 L25.2831206,19.5631514 C24.2054657,19.4702786 23.3267237,20.2709928 23.3267237,21.3528356 Z M18.8398522,38.7853143 L18.7441726,39.0965637 C18.7290653,39.5985789 18.7114401,40.1031042 18.6887791,40.6051194 L18.6006531,40.9163689 C18.560367,42.2492193 18.4999377,43.5795596 18.4168475,44.9048798 C17.3442284,57.7112882 13.9677443,70.3871725 8.9168665,83.1358491 L64.9826171,83.1358491 C59.9317394,70.3871725 56.5552552,57.7112882 55.485154,44.9048798 C55.4020638,43.5795596 55.3416346,42.2492193 55.3013484,40.9163689 L55.2132224,40.6051194 C55.1905614,40.1031042 55.1729362,39.5985789 55.1578289,39.0965637 L55.0621493,38.7853143 C53.9744229,34.5658763 50.4846339,31.6617182 46.5139289,31.6617182 C46.403142,31.6617182 46.249551,31.6617182 46.1312103,31.6692485 L27.7707912,31.6692485 C27.6524506,31.6617182 27.4988596,31.6617182 27.3880726,31.6617182 C23.4173676,31.6617182 19.9275787,34.5658763 18.8398522,38.7853143 Z M0.985527991,100.711402 C0.303181091,102.064333 -0.0770195807,103.658231 0.0136242879,105.171807 L0.00858851743,105.184358 C-0.303629252,113.82655 7.92481971,119.594705 20.0937591,122.75238 C24.4849509,123.907015 30.6109657,124.627407 36.7747488,124.652508 L37.1247348,124.652508 C43.2885179,124.627407 49.4145327,123.907015 53.8082424,122.75238 C65.9771818,119.594705 74.2056308,113.82655 73.893413,105.184358 L73.8883772,105.171807 C73.9790211,103.658231 73.5988204,102.064333 72.9164735,100.711402 C71.085971,97.0642615 69.3662553,93.4321813 67.7749519,89.8101415 L6.12453177,89.8101415 C4.53322829,93.4321813 2.81351268,97.0642615 0.985527991,100.711402 Z"></path>
                        </g>
                    </g>
                </g>
            </g>
        </g>
    </g>
</svg>