<svg width="74" height="125" viewBox="0 0 74 125" xmlns="http://www.w3.org/2000/svg"><title>Shape</title><path d="M30.206 118.419l13.508-1.11c0 3.926-3.026 7.363-6.755 7.669-3.722.309-6.753-2.638-6.753-6.559zm-6.872-4.122v-3.007c0-1.079.871-2.035 1.952-2.123l22.854-1.983a1.767 1.767 0 0 1 1.954 1.79v3.004c0 1.077-.878 2.036-1.954 2.124l-22.854 1.98c-1.08.095-1.952-.705-1.952-1.785zm-.007-10.65V98.76c0-1.082.878-2.036 1.956-2.126l23.356-.14c1.08-.09 1.951.71 1.951 1.787v3.012c0 1.077-.87 2.028-1.951 2.12l-23.356 2.024c-1.078.093-1.956-.708-1.956-1.79zM18.84 86.215l-.096-.312a100.63 100.63 0 0 0-.055-1.508l-.088-.311c-.04-1.333-.101-2.664-.184-3.989-1.073-12.806-4.45-25.482-9.5-38.23h56.066c-5.051 12.748-8.428 25.424-9.498 38.23a123.288 123.288 0 0 0-.184 3.989l-.088.31c-.022.503-.04 1.007-.055 1.51l-.096.31c-1.088 4.22-4.577 7.124-8.548 7.124-.11 0-.264 0-.383-.007h-18.36c-.119.007-.272.007-.383.007-3.97 0-7.46-2.904-8.548-7.123zM.986 24.289c-.683-1.353-1.063-2.947-.972-4.46l-.005-.013c-.313-8.643 7.916-14.41 20.085-17.568C24.485 1.093 30.61.373 36.774.348h.35c6.165.025 12.29.745 16.684 1.9 12.17 3.157 20.398 8.925 20.085 17.568l-.005.012c.091 1.514-.29 3.108-.972 4.46a235.51 235.51 0 0 0-5.141 10.902H6.125a238.076 238.076 0 0 0-5.14-10.901z" fill="#FFF"/></svg>